<svg xmlns="http://www.w3.org/2000/svg" width="21" height="20" viewBox="0 0 21 20"><defs><linearGradient id="a" x1="50%" x2="50%" y1="0%" y2="100%"><stop stop-color="#B8B177" offset="0%"/><stop stop-color="#8DB72F" offset="100%"/></linearGradient></defs><path fill="url(#a)" fill-rule="evenodd" d="M10.252 0C4.591 0 0 4.59 0 10.253c0 4.53 2.938 8.373 7.012 9.729.513.094.7-.222.7-.494 0-.243-.01-.888-.014-1.744-2.852.62-3.454-1.374-3.454-1.374-.466-1.185-1.138-1.5-1.138-1.5-.931-.636.07-.624.07-.624 1.03.073 1.57 1.057 1.57 1.057.915 1.567 2.4 1.114 2.985.852.093-.662.358-1.114.65-1.37-2.276-.26-4.67-1.139-4.67-5.068 0-1.119.4-2.035 1.056-2.751-.106-.26-.458-1.302.1-2.714 0 0 .86-.275 2.82 1.052a9.82 9.82 0 0 1 2.566-.346 9.831 9.831 0 0 1 2.567.346c1.958-1.327 2.817-1.052 2.817-1.052.56 1.412.208 2.455.102 2.714.658.716 1.054 1.632 1.054 2.751 0 3.94-2.397 4.806-4.68 5.06.367.316.695.942.695 1.898 0 1.37-.013 2.477-.013 2.813 0 .274.185.593.705.493 4.071-1.359 7.006-5.199 7.006-9.728C20.506 4.59 15.916 0 10.252 0"/></svg>
