<svg xmlns="http://www.w3.org/2000/svg" width="20" height="20" viewBox="0 0 20 20"><defs><linearGradient id="a" x1="50%" x2="50%" y1="0%" y2="100%"><stop stop-color="#B8B177" offset="0%"/><stop stop-color="#8DB72F" offset="100%"/></linearGradient></defs><path fill="url(#a)" fill-rule="evenodd" d="M54.043 17.042h-2.966v-4.641c0-1.107-.02-2.531-1.541-2.531-1.544 0-1.78 1.206-1.78 2.452v4.72h-2.963V7.498h2.844v1.305h.04c.396-.75 1.364-1.542 2.807-1.542 3.004 0 3.559 1.976 3.559 4.547v5.234zM41.449 6.194a1.72 1.72 0 1 1-.003-3.44 1.72 1.72 0 0 1 .003 3.44zm-1.486 10.848h2.97V7.498h-2.97v9.544zM55.52 0H38.475C37.661 0 37 .646 37 1.442v17.115c0 .796.661 1.443 1.475 1.443H55.52c.816 0 1.48-.647 1.48-1.443V1.442C57 .646 56.335 0 55.52 0z" transform="translate(-37)"/></svg>
